<svg width="139" height="124" viewBox="0 0 139 124" fill="none" xmlns="http://www.w3.org/2000/svg">
<path d="M0 5.8125C0 2.59141 2.6042 0 5.8412 0H16.9151C22.2696 0 27.0156 3.1 29.2303 7.75H129.261C135.662 7.75 140.335 13.8047 138.655 19.9563L128.677 56.8414C126.608 64.4461 119.672 69.75 111.762 69.75H41.5455L42.8598 76.6523C43.3953 79.3891 45.8047 81.375 48.6037 81.375H118.771C122.008 81.375 124.612 83.9664 124.612 87.1875C124.612 90.4086 122.008 93 118.771 93H48.6037C40.1826 93 32.9541 87.0422 31.3965 78.832L18.8379 13.1992C18.6675 12.2789 17.8643 11.625 16.9151 11.625H5.8412C2.6042 11.625 0 9.03359 0 5.8125ZM31.1531 112.375C31.1531 110.848 31.4552 109.337 32.0423 107.926C32.6294 106.516 33.49 105.234 34.5748 104.155C35.6596 103.075 36.9474 102.219 38.3648 101.635C39.7822 101.051 41.3013 100.75 42.8355 100.75C44.3696 100.75 45.8888 101.051 47.3061 101.635C48.7235 102.219 50.0114 103.075 51.0962 104.155C52.181 105.234 53.0415 106.516 53.6286 107.926C54.2157 109.337 54.5179 110.848 54.5179 112.375C54.5179 113.902 54.2157 115.413 53.6286 116.824C53.0415 118.234 52.181 119.516 51.0962 120.595C50.0114 121.675 48.7235 122.531 47.3061 123.115C45.8888 123.699 44.3696 124 42.8355 124C41.3013 124 39.7822 123.699 38.3648 123.115C36.9474 122.531 35.6596 121.675 34.5748 120.595C33.49 119.516 32.6294 118.234 32.0423 116.824C31.4552 115.413 31.1531 113.902 31.1531 112.375ZM112.93 100.75C116.028 100.75 119 101.975 121.191 104.155C123.381 106.335 124.612 109.292 124.612 112.375C124.612 115.458 123.381 118.415 121.191 120.595C119 122.775 116.028 124 112.93 124C109.832 124 106.86 122.775 104.669 120.595C102.478 118.415 101.247 115.458 101.247 112.375C101.247 109.292 102.478 106.335 104.669 104.155C106.86 101.975 109.832 100.75 112.93 100.75ZM61.3326 38.75C61.3326 41.4141 63.5231 43.5938 66.2003 43.5938H76.9091V54.25C76.9091 56.9141 79.0996 59.0938 81.7768 59.0938C84.454 59.0938 86.6445 56.9141 86.6445 54.25V43.5938H97.3533C100.031 43.5938 102.221 41.4141 102.221 38.75C102.221 36.0859 100.031 33.9062 97.3533 33.9062H86.6445V23.25C86.6445 20.5859 84.454 18.4062 81.7768 18.4062C79.0996 18.4062 76.9091 20.5859 76.9091 23.25V33.9062H66.2003C63.5231 33.9062 61.3326 36.0859 61.3326 38.75Z" fill="white"/>
</svg>
