<svg width="17" height="15" viewBox="0 0 17 15" fill="none" xmlns="http://www.w3.org/2000/svg">
<path d="M0.345307 8.38247C-0.115098 7.89438 -0.115098 7.10172 0.345307 6.61363L6.23849 0.366067C6.6989 -0.122023 7.4466 -0.122023 7.907 0.366067C8.36741 0.854158 8.36741 1.64682 7.907 2.13491L4.02118 6.25049L15.3214 6.25049C15.9733 6.25049 16.5 6.80886 16.5 7.5C16.5 8.19114 15.9733 8.74951 15.3214 8.74951L4.02486 8.74951L7.90332 12.8651C8.36372 13.3532 8.36372 14.1458 7.90332 14.6339C7.44291 15.122 6.69521 15.122 6.23481 14.6339L0.341623 8.38637L0.345307 8.38247Z" fill="#262626"/>
</svg>
